<svg xmlns="http://www.w3.org/2000/svg" viewBox="0 0 299.9 299.9"><path fill="#781f19" d="M300 150a150 150 0 1 1-300 0 150 150 0 0 1 300 0"/><path fill="#d6a64f" d="M265.7 150a115.7 115.7 0 1 1-231.5 0 115.7 115.7 0 0 1 231.5 0"/><path fill="none" stroke="#fff" stroke-miterlimit="10" stroke-width="3.4" d="M265.7 150a115.7 115.7 0 1 1-231.5 0 115.7 115.7 0 0 1 231.5 0z"/><path fill="#fff" d="m49.7 249.6 12.5-12.7 2.9 2.8-12.5 12.7-2.9-2.8"/><path fill="#fff" d="m58.5 233.3-13.8 11.2-3-3.6 2.8-7a68 68 0 0 1 2.9-6.1 72.8 72.8 0 0 1-5.6 4.9l-4 3.2-2.4-2.8 13.9-11.2 2.6 3.2-3 7.3a63 63 0 0 1-2.9 6.4h.1l6-5 4.1-3.4 2.3 3"/><path fill="#fff" d="M41.8 215.7c-.1-.4-.4-.9-.7-1.3-1.8-3.2-4.7-4.3-8.4-2.2-3.3 2-3.8 4.7-2 7.8.3.7.7 1.2 1 1.5l10-5.8zm-10.6 10.7a35 35 0 0 1-3-4.5c-1.8-3-2.4-5.2-2-7.3.2-2.3 1.5-4.4 4.3-6 3-1.7 5.6-1.8 7.7-1 2.3.8 4.3 3 6 6 1.1 1.8 1.7 3.2 2.1 4.1l-15.1 8.7"/><path fill="#fff" d="m19 203.3 16.4-7L37 200l-16.4 7-1.5-3.7"/><path fill="#fff" d="m23.7 185.5-3.3 2c-.9.7-2.1 1.4-3 1.9l3.5-.1h4l-1.2-3.8zm4.2 3.4h4.7l1.2 4-18.6-.2-1.5-5 15.5-10.4 1.2 4.1-4 2.6 1.5 5"/><path fill="#fff" d="m28.5 173.4-17.7 2.3-.6-4.7 6-4.5a56 56 0 0 1 5.7-3.7c-2.3.5-4.7 1-7.4 1.3l-5.1.6-.5-3.6 17.7-2.3.5 4.2-6.3 4.6a63 63 0 0 1-5.8 3.9v.1l7.7-1.2 5.3-.7.5 3.7"/><path fill="#fff" d="m8.9 142 17.8.7-.2 4-17.8-.7.2-4"/><path fill="#fff" d="m26.9 137.6-17.6-2.8.7-4.6 7-2.7c2-.7 4.4-1.4 6.5-1.9a53 53 0 0 1-7.4-.9l-5-.8.5-3.6 17.6 2.8-.7 4.1-7.4 2.7a63 63 0 0 1-6.7 2v.2c2.4.2 4.9.6 7.7 1l5.3.9-.5 3.6"/><path fill="#fff" d="M26.6 116.8c.8-.8 1.9-2.3 2.4-4 .5-1.7 0-2.9-1-3.2-1-.3-2 .3-3.3 2.1-1.9 2.5-4 3.9-6.5 3.1-3-1-4.4-4-3.1-8 .6-2 1.4-3.2 2.2-4l2.8 1.7c-.5.6-1.4 1.7-1.9 3.3-.5 1.7 0 2.7.9 3 1 .3 1.8-.5 3.4-2.4 2-2.7 4-3.6 6.4-2.8 2.9.9 4.6 3.8 3.2 8.5-.6 2-1.8 3.7-2.6 4.5l-3-1.8"/><path fill="#fff" d="m23.9 94-2 4.3-3.1-1.4 5.7-12.4 3.1 1.4-2 4.4 13 6L37 100l-13.1-6"/><path fill="#fff" d="m29.4 76.2 15.3 9-2 3.5-15.3-9 2-3.5"/><path fill="#fff" d="M37.9 69.6 35 73.4l-2.7-2 8.1-11 2.8 2-3 4L52 74.8l-2.4 3.3L38 69.5"/><path fill="#fff" d="m47.3 52.8 7.3 7.2c2.2 2.2 4.1 2.4 5.5 1 1.5-1.5 1.3-3.4-1-5.6L52 48.2l2.8-2.9 7.1 7c4 4 3.8 7.7.5 11-3.1 3.2-6.7 3.3-10.8-.7l-7-7 2.8-2.8"/><path fill="#fff" d="m65.4 41-3.9 3-2-2.8 11-8.2 2 2.7-4 3L77.3 50 74 52.5 65.4 41"/><path fill="#fff" d="M89.8 33.4 84 36.7l2 3.7 6.4-3.7 1.7 2.9-9.9 5.6-8.8-15.4 9.5-5.5 1.6 2.9-6 3.4 1.8 3.2 5.7-3.2 1.7 2.8"/><path fill="#fff" d="M110.9 29.7c2.5-.8 3.2-3.7 2.2-7-1-3-3.3-5.2-6-4.4-2.6.9-3.2 4-2.2 7 1 3.3 3.4 5.3 6 4.4zm.8 3.1c-5 1.6-9.2-1.2-10.8-6-1.6-5 .4-10 5.4-11.5 5.2-1.7 9.3 1.2 10.8 6 1.8 5.5-.5 10-5.4 11.5"/><path fill="#fff" d="m121.2 11.5 10.7-1.8.5 3.3-6.7 1.1.6 4 6.4-1 .5 3.2-6.3 1 1.2 7.1-4 .7-3-17.6"/><path fill="#fff" d="M150 12h-4.7V8.6l13.7.2v3.4l-5-.1-.2 14.4h-4l.3-14.5"/><path fill="#fff" d="m174 21-6.5-.9-.6 4.2 7.2 1-.4 3.3-11.3-1.6L165 9.4l10.8 1.5-.5 3.3-6.8-1-.6 3.7 6.5.9-.4 3.2"/><path fill="#fff" d="M190.6 32.6c-.8.1-2.6 0-4.6-.5-6-1.7-8-6.3-6.5-11.2 1.6-5.8 6.7-7.9 11.9-6.4 2 .6 3.4 1.4 4 2l-1.7 2.8a8.5 8.5 0 0 0-3-1.6c-3.1-.8-6 .3-7.1 4.2-1 3.4.4 6.1 3.9 7.1 1.2.4 2.5.5 3.4.4l-.3 3.2"/><path fill="#fff" d="m205.5 20-2.8 6.2 6 2.8 2.9-6.3 3.6 1.7-7.4 16.2-3.6-1.7 3-6.7-6-2.8-3 6.8-3.7-1.7 7.4-16.2 3.6 1.7"/><path fill="#fff" d="m212.3 43 9.9-14.7 3.9 2.6-.5 7.5c-.2 2.1-.6 4.5-1 6.7 1.1-2.1 2.4-4.1 3.9-6.4l2.9-4.3 3 2-9.8 14.9-3.6-2.4.7-7.8a59 59 0 0 1 1-7h-.2l-4.1 6.6-3 4.4-3-2"/><path fill="#fff" d="M236.2 57.6c2 1.8 4.9 1 7.3-1.5 2.2-2.4 3-5.4.9-7.3-2-1.9-5-1-7.3 1.4-2.3 2.5-2.9 5.5-.9 7.3zm-2.3 2.2c-3.8-3.6-3.4-8.7 0-12.4 3.7-3.9 9-4.4 12.8-.9 4 3.8 3.3 8.8 0 12.4-4 4.3-9 4.4-12.8.9"/><path fill="#fff" d="m257 57.7 2.6 3.1-11.3 9 4.5 5.6-2.7 2-6.9-8.6 13.9-11.1"/><path fill="#fff" d="M258.4 85c1.4 2.3 4.4 2.3 7.4.6 2.7-1.7 4.3-4.4 2.9-6.8-1.4-2.3-4.5-2.3-7.4-.6-2.9 1.7-4.3 4.5-2.9 6.8zm-2.8 1.5c-2.7-4.5-1-9.2 3.4-11.9 4.6-2.7 9.8-1.8 12.5 2.7 2.8 4.7.8 9.3-3.4 11.9-5 3-9.8 1.8-12.5-2.7"/><path fill="#fff" d="M268.4 111.2c-.9-1-2.3-3-3.2-5.2-1.2-3-1.3-5.5-.4-7.6a9 9 0 0 1 5-4.7c5.6-2.2 10.3.6 12.5 6 .8 2.2 1 4 1 5l-3.3.3c0-1-.1-2.3-.8-4-1.3-3.2-4-4.9-7.6-3.4-3.4 1.3-4.5 4.3-3.3 7.3.3.9.7 1.5 1 1.8l3.4-1.4-1-2.6 3-1.1 2.4 6.1-8.7 3.5"/><path fill="#fff" d="m269.8 120 7.1-1.6 9-7.8 1 4.5-3.7 2.7a62 62 0 0 1-3 2.1l3.6.6 4.6.8 1 4.4-11.4-3.4-7.3 1.7-.9-4"/><path fill="#fff" d="m280.4 155 7.3-.2v-.1c-2.3-.5-4.9-1.2-7-1.9l-7-2v-3.2l6.9-2a94 94 0 0 1 6.9-1.7l-7.4-.3-6.7-.2-.1-3.7 17.8.8.1 5.4-6 1.8c-2 .7-4.2 1.2-6.2 1.6v.2l6.4 1.5 6 1.8v5.3l-17.8 1.2v-3.9l6.8-.4"/><path fill="#fff" d="m278.9 173.8 3.9-.5 3.5-.3-3.2-1.4-3.6-1.7-.6 3.9zm-2.2-5-4.3-2 .7-4 16.6 8.3-.9 5.2-18.4 2.4.7-4.2 4.7-.6.9-5"/><path fill="#fff" d="M271 187.4c-.3.3-.5.8-.6 1.3-1.2 3.5 0 6.4 4 7.7 3.6 1.3 6-.2 7.1-3.5.3-.8.4-1.4.4-1.8l-11-3.7zm15 .8-1.4 5.3c-1.1 3.2-2.4 5.1-4.1 6.3a8.1 8.1 0 0 1-7.4.7c-3.2-1-5-3-5.9-5-.9-2.4-.6-5.3.5-8.6l1.7-4.3 16.5 5.6"/><path fill="#fff" d="m269.4 209.5-.7 1.4c-1 1.8-.6 3.3.8 4 1.4.7 2.7.1 3.5-1.5a8 8 0 0 0 .7-1.7l-4.3-2.2zm8.6 0c-.4 1.2-1.1 3-2.1 4.9-1.2 2.3-2.4 3.8-4 4.4-1.2.6-2.5.6-4-.2-2-1-2.6-3.2-2.4-4.8-1.1.8-2.4 1-4.1.6l-5.1-1.1 1.9-3.7c.5 0 2 .3 4.2.9 2.2.6 3 .1 3.9-1.3l.5-1-6.2-3.3 1.9-3.5 15.5 8"/><path fill="#fff" d="m255.2 228.2 3.7 1.3 3.3 1.3-2.3-2.7-2.4-3.1-2.3 3.2zm.2-5.5-3-3.6 2.5-3.4 11.2 14.8-3 4.3-17.8-6 2.6-3.5 4.5 1.6 3-4.2"/><path fill="#fff" d="M245.5 234.7c-1.1.4-2.7 1.2-3.9 2.5-1.3 1.3-1.4 2.5-.5 3.3.8.8 1.8.6 3.8-.4 2.8-1.4 5.4-1.6 7.3.2 2.2 2 2 5.5-.9 8.5a10.5 10.5 0 0 1-3.8 2.7l-1.7-3c.8-.2 2-.8 3.2-2 1.2-1.3 1.2-2.4.6-3-.8-.8-1.9-.5-4.1.6-3 1.4-5.2 1.3-7-.4-2.2-2-2.5-5.5 1-9a11 11 0 0 1 4.2-2.9l1.8 3"/><path fill="#fff" d="M233.8 256a2.6 2.6 0 1 1-5.3 0 2.6 2.6 0 0 1 5.3 0"/><path fill="#fff" d="M71.4 256a2.6 2.6 0 1 1-5.2 0 2.6 2.6 0 0 1 5.2 0"/><path fill="#fff" d="m87 220.8 42 7.5-4.4 5.3 41.3 3.6-4.2 3.4 40.8 1.7-54 5.4 6.8-6-42.7-4.4 7-5.2L87 220.8"/><path fill="#fff" d="m82.2 257.4 3.7 2.1c0-.7 0-1.3.3-2 .1-.6.4-1.3.7-1.8.5-.9 1.3-1.4 2.4-1.7 1-.2 2 0 3 .6 1.3.7 2.3 2 3 3.9A21 21 0 0 1 97 265h-1a13 13 0 0 0-1.4-5 8 8 0 0 0-3-3.2c-.7-.4-1.5-.4-2.3-.1a4 4 0 0 0-2 1.8c-.4.6-.7 1.1-.7 1.4l1.4.9.3 2.2-2-1.1-6.8 11.6-1.4-2.6 6.1-10.3-1.9-1-.2-2.3"/><path fill="#fff" d="M91.8 267c-.2.8-.4 1.5-.8 2.3.2.6.5 1 .8 1.4l1.1 1 1.3.2c.5 0 1-.1 1.4-.3l2-3.9L92 265c0 .6 0 1.3-.2 2zm.5 11.5 2.1-4.4-.6-.1c-.3 0-.6-.2-1-.4a4 4 0 0 1-1.5-1.4 7 7 0 0 1-1-2.2c-.5.5-1 .9-1.7 1.1-.6.3-1.2.4-1.7.3.3 2.1 1.2 4.3 2.5 6.5l-1.5.6c-2.2-6.3-3-10-2.4-11.3.2-.4.4-.6.7-.8h.9c.3.1.5.4.7.7l.2 1.3a2.7 2.7 0 0 0 2.5-1.6l.4-1.2v-1.1l-4-2-.5-2.2 15 7.2.4 2.3-2-1-6 12.1-1.5-2.4"/><path fill="#fff" d="m99.8 266.7 4 1.6v-2c0-.7.1-1.4.4-2 .3-1 1-1.6 2-2 1-.3 2-.3 3.2.1a8 8 0 0 1 3.6 3.3 23 23 0 0 1 2.5 6.3l-.7.2a13 13 0 0 0-2.2-4.7 8 8 0 0 0-3.5-2.7c-.7-.3-1.5-.2-2.3.2a4 4 0 0 0-1.7 2.1l-.5 1.5 1.6.6.6 2.2-2.1-.8-5 12.6-1.7-2.3 4.4-11.2-2-.8-.6-2.2"/><path fill="#fff" d="M107.7 284.8c.2.3.4.5.8.6a4 4 0 0 0 4-1.5 6.4 6.4 0 0 1-2.6-1.3c-.5 0-1 .1-1.5.4-.4.2-.7.6-.8 1l.1.8zm12.7-11 .8 2.1-2.6-.8-1.3 4.1-5.7-1.7c-.4-.1-.9 0-1.3.2s-.7.6-.8 1c-.2.6 0 1.1.3 1.7.3.5.8.8 1.5 1l1.8.4v-.7c0-.4.3-.7.8-.9h1.4c.5.2 1 .5 1.2 1 .2.5.3 1 0 1.6 0 .4-.3.7-.6 1-.4.2-.8.4-1.3.4l2.3 4.5-1.4.5-1.3-3.4a5.3 5.3 0 0 1-4.8 1.2c-1-.4-1.8-1-2.5-1.9-.8-.9-1-1.6-.9-2.2a2.7 2.7 0 0 1 .7-1.1c-1-.4-1.8-1-2.3-1.7-.5-.7-.6-1.5-.4-2.2 0-.2.2-.5.6-.8l1.2-1 1.5 2.4-.8.5c-.3.2-.4.3-.4.5-.1.3 0 .6.2.9.2.3.5.5 1 .6l1.4-.5a4.3 4.3 0 0 1-.6-3.6c.2-.6.7-1.1 1.5-1.4a4 4 0 0 1 2.6 0l3.4 1 .6-2-11-3.4-.8-2.2 16 4.9"/><path fill="#fff" d="M121.7 277c.4.4.9.7 1.5.9l.5-2.6v-.8l-.5-.4c-.4 0-.8 0-1.2.3-.4.3-.6.6-.7 1 0 .6 0 1 .4 1.5zm4.8-2.1 7.4 1.3 1 2-2.2-.3-2.4 13.2-2.2-2 .8-3.8-4.4-.8-.3 1.5c0 .3-.2.6-.4.8-.2.2-.5.3-.7.2-.7-.1-1.4-.7-2.2-1.9-.7-1.1-1-2-.8-2.8 0-.2.1-.4.4-.5l.8-.1 1.2.2.5-2.8c-1.2-.6-2-1.3-2.6-2.2-.7-1-.9-1.9-.7-2.8.1-.6.4-1 1-1.4.5-.3 1.1-.4 1.8-.3.9.2 1.7.8 2.4 2 .8 1.1 1 2.2.9 3.1l-1 4.9 4.4.7 1-5.7-2.8-.5-.9-2"/><path fill="#fff" d="M130.3 268.7c.6-.5 1.3-.7 2.1-.6a4.2 4.2 0 0 1 3.5 3l-.5.3c-.2-.4-.5-.7-.8-.9-.4-.2-.7-.4-1-.4-.7 0-1.4.1-2 .5a2.5 2.5 0 0 0-.7 3c.1.5.4 1 .8 1.5l-.7.5a7.1 7.1 0 0 1-1.5-2.5c-.3-.9-.4-1.8-.3-2.6 0-.8.5-1.4 1-1.8"/><path fill="#fff" d="M136 286.3c.4.4.9.6 1.4.6a6 6 0 0 0 2.5-.4 10 10 0 0 0 2.6-1.4c-.5-.6-1-1.2-1.6-1.6-.6-.3-1.2-.6-1.8-.6a4 4 0 0 0-2.4.5c-.7.5-1 1-1.1 1.7 0 .5.1.9.5 1.2zm10.5-9.2 1.2 2-2.3-.2-1 13.5-2.3-1.7.2-3.1c-.6.4-1.3.8-2 1-.6.2-1.2.3-1.8.2-1.1 0-2.2-.7-3.3-1.8-1.1-1.1-1.6-2.2-1.5-3.3 0-.9.5-1.6 1.3-2.2a4 4 0 0 1 2.7-.7c1 0 1.9.4 2.7 1a7 7 0 0 1 2.2 2.3l.4-5.4-9.8-.7-1.3-2 14.6 1.1"/><path fill="#fff" d="M145 277h4.3l-.8-1.8a7 7 0 0 1-.2-2c0-1 .4-1.9 1.2-2.6.9-.7 1.8-1 3-1 1.4 0 2.9.6 4.5 1.9 1.6 1.2 3.1 2.9 4.6 5l-.6.4a13 13 0 0 0-3.7-3.6 8 8 0 0 0-4.2-1.4c-.8 0-1.5.3-2.1 1a4 4 0 0 0-1 2.6l.2 1.6h1.7l1.3 1.9H151l-.2 13.4-2.4-1.6.2-12h-2.2L145 277"/><path fill="#fff" d="m164.4 276.4 1.5 1.7-2.3.2 1 13.5-2.6-1.4-.5-6.8-4.7.4c-.4 0-.8.2-1 .6a2 2 0 0 0-.4 1.5c0 .8.4 1.6 1 2.5a10 10 0 0 0 2.4 2.5l-.9.8a23 23 0 0 1-3.5-3.8 6.5 6.5 0 0 1-1.4-3.1c0-.9.2-1.7.7-2.3.5-.7 1-1 1.8-1.1l5.9-.4-.2-2.8-9.7.7-1.5-1.8 14.4-1"/><path fill="#fff" d="M174 284.2c.3.2.7.3 1.1.2a4 4 0 0 0 1.8-.9c.6-.5 1-1 1.4-1.8-.3-.4-.7-.7-1.2-.9-.4-.1-.9-.2-1.3-.1-.8.1-1.4.5-1.9 1s-.7 1-.6 1.5c.1.4.3.8.7 1zm11-11.7 1.8 1.6-7.2 1.4.8 4a3 3 0 0 1 2-1.4c.9-.2 1.8.2 3 1.3 1 1 1.7 2.1 2 3.3a5 5 0 0 1 0 1.8 8 8 0 0 1-.7 2l-2.3-1.3 1-2c.1-.7.2-1.3 0-1.8 0-.5-.3-1-.7-1.2-.4-.3-.8-.4-1.2-.3-.5 0-.9.3-1.3.8-.5.4-.9 1-1.2 1.6l1.3 6.4-2.7-1-.7-3.3a3.6 3.6 0 0 1-2.3 1.6c-1 .2-2-.2-3-1a4.9 4.9 0 0 1-2-2.8c-.2-.7 0-1.4.5-2 .5-.6 1.1-1 2-1.2.6-.1 1.3 0 2 .2.7.3 1.4.7 2 1.3l-1-4.5-7.5 1.5-1.7-1.5 17.2-3.5"/><path fill="#fff" d="m191.7 278.1 4.4-1.5-2-5.5-4.3 1.5 2 5.5zm5-9.8 2 1.3-2.2.7 4.4 12.8-2.8-.7-1.2-3.4-4.4 1.5.5 1.4v1c0 .2-.2.4-.5.5-.7.2-1.7 0-3-.6-1.1-.7-1.9-1.4-2.1-2.2v-.7c.2-.3.4-.4.7-.5l1.3-.5-1.9-5.5-3 1-2-1.2 14.3-5"/><path fill="#fff" d="M190 263.5c.3-.7.8-1.2 1.6-1.5a4.2 4.2 0 0 1 4.4.8l-.2.6-1.2-.4c-.4 0-.8 0-1 .2-.7.2-1.2.7-1.5 1.4-.3.6-.3 1.3 0 2 .1.3.4.7.8 1l1.4.9-.4.6c-1-.3-1.8-.7-2.5-1.4a5.6 5.6 0 0 1-1.5-2c-.3-.8-.3-1.5 0-2.2"/><path fill="#fff" d="m210.5 262 2 1-2 1 5.7 12.2-2.9-.3-2.7-5.9-4 1.9c1 .2 1.7.5 2.3 1a4 4 0 0 1 1.5 1.7c.3.6.3 1.3 0 2a3 3 0 0 1-1.5 1.7c-1.2.6-2.7.4-4.5-.4-1.8-.9-3.5-2.3-5.2-4.2l.7-.7a11 11 0 0 0 3.7 3c1.3.5 2.4.6 3.3.2.4-.2.6-.5.8-1 0-.3 0-.8-.2-1.2a4 4 0 0 0-1.8-1.7c-1-.5-2-.9-3.4-1.1l7.2-3.4-1.3-2.8-11.3 5.4-2-1 15.6-7.5"/><path fill="#fff" d="m214.8 259.2 2.1 1-2 1 6.8 11.8-3-.1-5.9-10.4-1.9 1.1-2.1-1 6-3.4"/><path fill="#fff" d="M67.8 168c0 4 9 6 11.4 6.5a174 174 0 0 0 31 4.6c9.7.6 21.4-1 30.7-3.3a125.3 125.3 0 0 1-14.5-22.8c-34.3 2.3-58.6 9.2-58.6 15zm105.7-15a126 126 0 0 1-14.4 22.7c9.2 2.4 21 4 30.6 3.3 10.4-.7 21-2 31-4.6 2.4-.6 11.4-2.5 11.4-6.4 0-5.9-24.2-12.8-58.6-15"/><path fill="none" stroke="#1f1917" stroke-miterlimit="10" stroke-width="3.4" d="M67.8 168c0 4 9 6 11.4 6.5a174 174 0 0 0 31 4.6c9.7.6 21.4-1 30.7-3.3a125.3 125.3 0 0 1-14.5-22.8c-34.3 2.3-58.6 9.2-58.6 15zm105.7-15a126 126 0 0 1-14.4 22.7c9.2 2.4 21 4 30.6 3.3 10.4-.7 21-2 31-4.6 2.4-.6 11.4-2.5 11.4-6.4 0-5.9-24.2-12.8-58.6-15z"/><path fill="#fff" d="M140.9 175.7a125.6 125.6 0 0 1-14.4-22.7l-.9-2a69 69 0 0 1-4.2-13.4c-4-20 2.3-40.2 13.4-56.8 6.4-9.7 13.3-19.6 15-31.4h.4c1.8 11.8 8.6 21.7 15 31.4a76.8 76.8 0 0 1 13.5 56.8 71 71 0 0 1-4.3 13.5l-.9 1.9a126 126 0 0 1-14.4 22.7 63 63 0 0 1-9-3 63 63 0 0 1-9 3h-.2"/><path fill="none" stroke="#1f1917" stroke-miterlimit="10" stroke-width="3.4" d="M140.9 175.7a125.6 125.6 0 0 1-14.4-22.7l-.9-2a69 69 0 0 1-4.2-13.4c-4-20 2.3-40.2 13.4-56.8 6.4-9.7 13.3-19.6 15-31.4h.4c1.8 11.8 8.6 21.7 15 31.4a76.8 76.8 0 0 1 13.5 56.8 71 71 0 0 1-4.3 13.5l-.9 1.9a126 126 0 0 1-14.4 22.7 63 63 0 0 1-9-3 63 63 0 0 1-9 3h-.2z"/><path fill="#781f19" d="M140.9 175.8c-9.3 2.4-21 4-30.7 3.3-10.3-.7-20.9-2-31-4.6-2.1-.5-9.8-2.2-11.2-5.4 7.9 28.8 41.6 50.4 82 50.4s74.1-21.6 82-50.4h-.1c-1.5 3.2-9 4.8-11.2 5.3a174 174 0 0 1-31 4.6 102.2 102.2 0 0 1-39.6-6.2 80 80 0 0 1-9 2.9h-.2z"/><path fill="none" stroke="#1f1917" stroke-miterlimit="10" stroke-width="3.4" d="M140.9 175.8c-9.3 2.4-21 4-30.7 3.3-10.3-.7-20.9-2-31-4.6-2.1-.5-9.8-2.2-11.2-5.4 7.9 28.8 41.6 50.4 82 50.4s74.1-21.6 82-50.4h-.1c-1.5 3.2-9 4.8-11.2 5.3a174 174 0 0 1-31 4.6 102.2 102.2 0 0 1-39.6-6.2 80 80 0 0 1-9 2.9h-.2"/><path fill="#bda345" d="M151.5 151.6c-.7.7-1.3 1.4-1.3 2 0-.6-.7-1.4-1.4-2.1V173h.8l.5-.2.6.2h.8v-21.4"/><path fill="none" stroke="#1f1917" stroke-miterlimit="10" stroke-width="3.4" d="M151.5 151.6c-.7.7-1.3 1.4-1.3 2 0-.6-.7-1.4-1.4-2.1V173h.8l.5-.2.6.2h.8v-21.4z"/><path fill="#d9261c" d="M150.5 136.2h-.6c-3 0-5.4 2.1-6.1 5.1-.9 3.9 1 6.4 3.5 8.8.7.7 2.8 2.3 2.8 3.5h.1c0-1.2 2.1-2.8 2.8-3.5 2.7-2.4 4.4-5 3.6-8.8-.7-3-3.2-5.1-6.1-5.1h-.6.6z"/><path fill="none" stroke="#1f1917" stroke-linejoin="round" stroke-miterlimit="10" stroke-width="3.4" d="M150.5 136.2h-.6c-3 0-5.4 2.1-6.1 5.1-.9 3.9 1 6.4 3.5 8.8.7.7 2.8 2.3 2.8 3.5h.1c0-1.2 2.1-2.8 2.8-3.5 2.7-2.4 4.4-5 3.6-8.8-.7-3-3.2-5.1-6.1-5.1h-.6"/><path fill="#d9261c" d="M143.8 141.3c.4-2 1.7-3.6 3.4-4.4l.2-.4s-7.3-6-16.5 1.2c.4-.2 4 2.9 4.4 3.2a10 10 0 0 0 8 2l.3-.5.2-1"/><path fill="none" stroke="#1f1917" stroke-linejoin="round" stroke-miterlimit="10" stroke-width="3.4" d="M143.8 141.3c.4-2 1.7-3.6 3.4-4.4l.2-.4s-7.3-6-16.5 1.2c.4-.2 4 2.9 4.4 3.2a10 10 0 0 0 8 2l.3-.5.2-1z"/><path fill="#d9261c" d="M152.5 136.4v.2c2 .7 3.6 2.5 4 4.7l.3 1.6a10 10 0 0 0 7.7-2c.5-.3 4-3.4 4.5-3.2-9.2-7.2-16.5-1.3-16.5-1.3"/><path fill="none" stroke="#1f1917" stroke-linejoin="round" stroke-miterlimit="10" stroke-width="3.4" d="M152.5 136.4v.2c2 .7 3.6 2.5 4 4.7l.3 1.6a10 10 0 0 0 7.7-2c.5-.3 4-3.4 4.5-3.2-9.2-7.2-16.5-1.3-16.5-1.3z"/><path fill="#d9261c" d="M149.8 94.3s-19 28.8-2.3 41.6h4.6c16.6-12.8-2.3-41.6-2.3-41.6z"/><path fill="none" stroke="#1f1917" stroke-linecap="round" stroke-linejoin="round" stroke-miterlimit="10" stroke-width="3.4" d="M149.8 94.3s-19 28.8-2.3 41.6h4.6c16.6-12.8-2.3-41.6-2.3-41.6"/><path fill="#d9261c" d="m145.7 101.8-8-7c.7.7.5 4.7.5 5.7l-.3 6.6c-.3 3-1 5.8-1.4 8.6a19 19 0 0 0 2.3 13.3c1.9 3 5.3 5.4 8.5 6.8-11-8.7-6-24.6-1.6-34"/><path fill="none" stroke="#1f1917" stroke-linejoin="round" stroke-miterlimit="10" stroke-width="3.4" d="m145.7 101.8-8-7c.7.7.5 4.7.5 5.7l-.3 6.6c-.3 3-1 5.8-1.4 8.6a19 19 0 0 0 2.3 13.3c1.9 3 5.3 5.4 8.5 6.8-11-8.7-6-24.6-1.6-34z"/><path fill="#d9261c" d="m163.2 115.7-1.4-8.6-.3-6.6c0-1-.3-5 .4-5.7l-8 7.1c4.4 9.4 9.4 25.3-1.7 34 3.2-1.4 6.8-4 8.6-6.9 2.6-4 3.1-8.7 2.4-13.3"/><path fill="none" stroke="#1f1917" stroke-linejoin="round" stroke-miterlimit="10" stroke-width="3.4" d="m163.2 115.7-1.4-8.6-.3-6.6c0-1-.3-5 .4-5.7l-8 7.1c4.4 9.4 9.4 25.3-1.7 34 3.2-1.4 6.8-4 8.6-6.9 2.6-4 3.1-8.7 2.4-13.3z"/><path fill="#d9261c" d="m153.3 135.3.4.4c1.9-1 5.7-2.5 10.5-.7h.3s1.7-4.6 4.5-4.6c0 0-3.8-2-8.7-.6a19.7 19.7 0 0 1-7 5.5"/><path fill="none" stroke="#1f1917" stroke-linejoin="round" stroke-miterlimit="10" stroke-width="3.4" d="m153.3 135.3.4.4c1.9-1 5.7-2.5 10.5-.7h.3s1.7-4.6 4.5-4.6c0 0-3.8-2-8.7-.6a19.7 19.7 0 0 1-7 5.5z"/><path fill="#d9261c" d="m146 135.6.2-.1v-.3a19.2 19.2 0 0 1-6.8-5.4c-5-1.4-8.7.6-8.7.6 2.8 0 4.4 4.5 4.4 4.5l.4.2c4.7-1.8 8.5-.5 10.5.5"/><path fill="none" stroke="#1f1917" stroke-linejoin="round" stroke-miterlimit="10" stroke-width="3.4" d="m146 135.6.2-.1v-.3a19.2 19.2 0 0 1-6.8-5.4c-5-1.4-8.7.6-8.7.6 2.8 0 4.4 4.5 4.4 4.5l.4.2c4.7-1.8 8.5-.5 10.5.5z"/><path fill="#d9261c" d="m145.6 102 2.4-4.6-3.3-4.5-2.6 5.6v.2l3.6 3.1v.1"/><path fill="none" stroke="#1f1917" stroke-miterlimit="10" stroke-width="3.4" d="m145.6 102 2.4-4.6-3.3-4.5-2.6 5.6v.2l3.6 3.1v.1z"/><path fill="#d9261c" d="m154 101.9 3.8-3.4-2.5-5.6-3.3 4.6v.5l2 4v-.1"/><path fill="none" stroke="#1f1917" stroke-miterlimit="10" stroke-width="3.4" d="m154 101.9 3.8-3.4-2.5-5.6-3.3 4.6v.5l2 4v-.1z"/></svg>