<svg xmlns="http://www.w3.org/2000/svg" viewBox="450 175 1250 500">
  <g transform="translate(-98 -48)" stroke-width="1"><path stroke="#505050" d="m579 278 169 69"/><path stroke="#505050" d="m579 278 169 115"/><path stroke="#505050" d="m579 278 169 161"/><path stroke="#505050" d="m579 278 169 207"/><path stroke="#505050" d="m579 278 169 253"/><path stroke="#505050" d="m579 278 169 299"/><path stroke="#505050" d="m579 278 169 345"/><path stroke="#505050" d="m579 324 169 23"/><path stroke="#505050" d="m579 324 169 69"/><path stroke="#505050" d="m579 324 169 115"/><path stroke="#505050" d="m579 324 169 161"/><path stroke="#505050" d="m579 324 169 207"/><path stroke="#505050" d="m579 324 169 253"/><path stroke="#505050" d="m579 324 169 299"/><path stroke="#505050" d="m579 370 169-23"/><path stroke="#505050" d="m579 370 169 23"/><path stroke="#505050" d="m579 370 169 69"/><path stroke="#505050" d="m579 370 169 115"/><path stroke="#505050" d="m579 370 169 161"/><path stroke="#505050" d="m579 370 169 207"/><path stroke="#505050" d="m579 370 169 253"/><path stroke="#505050" d="m579 416 169-69"/><path stroke="#505050" d="m579 416 169-23"/><path stroke="#505050" d="m579 416 169 23"/><path stroke="#505050" d="m579 416 169 69"/><path stroke="#505050" d="m579 416 169 115"/><path stroke="#505050" d="m579 416 169 161"/><path stroke="#505050" d="m579 416 169 207"/><path stroke="#505050" d="m579 462 169-115"/><path stroke="#505050" d="m579 462 169-69"/><path stroke="#505050" d="m579 462 169-23"/><path stroke="#505050" d="m579 462 169 23"/><path stroke="#505050" d="m579 462 169 69"/><path stroke="#505050" d="m579 462 169 115"/><path stroke="#505050" d="m579 462 169 161"/><path stroke="#505050" d="m579 508 169-161"/><path stroke="#505050" d="m579 508 169-115"/><path stroke="#505050" d="m579 508 169-69"/><path stroke="#505050" d="m579 508 169-23"/><path stroke="#505050" d="m579 508 169 23"/><path stroke="#505050" d="m579 508 169 69"/><path stroke="#505050" d="m579 508 169 115"/><path stroke="#505050" d="m579 554 169-207"/><path stroke="#505050" d="m579 554 169-161"/><path stroke="#505050" d="m579 554 169-115"/><path stroke="#505050" d="m579 554 169-69"/><path stroke="#505050" d="m579 554 169-23"/><path stroke="#505050" d="m579 554 169 23"/><path stroke="#505050" d="m579 554 169 69"/><path stroke="#505050" d="m579 600 169-253"/><path stroke="#505050" d="m579 600 169-207"/><path stroke="#505050" d="m579 600 169-161"/><path stroke="#505050" d="m579 600 169-115"/><path stroke="#505050" d="m579 600 169-69"/><path stroke="#505050" d="m579 600 169-23"/><path stroke="#505050" d="m579 600 169 23"/><path stroke="#505050" d="m579 646 169-299"/><path stroke="#505050" d="m579 646 169-253"/><path stroke="#505050" d="m579 646 169-207"/><path stroke="#505050" d="m579 646 169-161"/><path stroke="#505050" d="m579 646 169-115"/><path stroke="#505050" d="m579 646 169-69"/><path stroke="#505050" d="m579 646 169-23"/><path stroke="#505050" d="m748 301 169 46"/><path stroke="#505050" d="m748 301 169 92"/><path stroke="#505050" d="m748 301 169 138"/><path stroke="#505050" d="m748 301 169 184"/><path stroke="#505050" d="m748 301 169 230"/><path stroke="#505050" d="m748 301 169 276"/><path stroke="#505050" d="m748 301 169 322"/><path stroke="#505050" d="M748 347h169"/><path stroke="#505050" d="m748 347 169 46"/><path stroke="#505050" d="m748 347 169 92"/><path stroke="#505050" d="m748 347 169 138"/><path stroke="#505050" d="m748 347 169 184"/><path stroke="#505050" d="m748 347 169 230"/><path stroke="#505050" d="m748 347 169 276"/><path stroke="#505050" d="m748 393 169-46"/><path stroke="#505050" d="M748 393h169"/><path stroke="#505050" d="m748 393 169 46"/><path stroke="#505050" d="m748 393 169 92"/><path stroke="#505050" d="m748 393 169 138"/><path stroke="#505050" d="m748 393 169 184"/><path stroke="#505050" d="m748 393 169 230"/><path stroke="#505050" d="m748 439 169-92"/><path stroke="#505050" d="m748 439 169-46"/><path stroke="#505050" d="M748 439h169"/><path stroke="#505050" d="m748 439 169 46"/><path stroke="#505050" d="m748 439 169 92"/><path stroke="#505050" d="m748 439 169 138"/><path stroke="#505050" d="m748 439 169 184"/><path stroke="#505050" d="m748 485 169-138"/><path stroke="#505050" d="m748 485 169-92"/><path stroke="#505050" d="m748 485 169-46"/><path stroke="#505050" d="M748 485h169"/><path stroke="#505050" d="m748 485 169 46"/><path stroke="#505050" d="m748 485 169 92"/><path stroke="#505050" d="m748 485 169 138"/><path stroke="#505050" d="m748 531 169-184"/><path stroke="#505050" d="m748 531 169-138"/><path stroke="#505050" d="m748 531 169-92"/><path stroke="#505050" d="m748 531 169-46"/><path stroke="#505050" d="M748 531h169"/><path stroke="#505050" d="m748 531 169 46"/><path stroke="#505050" d="m748 531 169 92"/><path stroke="#505050" d="m748 577 169-230"/><path stroke="#505050" d="m748 577 169-184"/><path stroke="#505050" d="m748 577 169-138"/><path stroke="#505050" d="m748 577 169-92"/><path stroke="#505050" d="m748 577 169-46"/><path stroke="#505050" d="M748 577h169"/><path stroke="#505050" d="m748 577 169 46"/><path stroke="#505050" d="m748 623 169-276"/><path stroke="#505050" d="m748 623 169-230"/><path stroke="#505050" d="m748 623 169-184"/><path stroke="#505050" d="m748 623 169-138"/><path stroke="#505050" d="m748 623 169-92"/><path stroke="#505050" d="m748 623 169-46"/><path stroke="#505050" d="M748 623h169"/><path stroke="#505050" d="m917 301 169 92"/><path stroke="#505050" d="m917 301 169 138"/><path stroke="#505050" d="m917 301 169 184"/><path stroke="#505050" d="m917 301 169 230"/><path stroke="#505050" d="m917 301 169 276"/><path stroke="#505050" d="m917 347 169 46"/><path stroke="#505050" d="m917 347 169 92"/><path stroke="#505050" d="m917 347 169 138"/><path stroke="#505050" d="m917 347 169 184"/><path stroke="#505050" d="m917 347 169 230"/><path stroke="#505050" d="M917 393h169"/><path stroke="#505050" d="m917 393 169 46"/><path stroke="#505050" d="m917 393 169 92"/><path stroke="#505050" d="m917 393 169 138"/><path stroke="#505050" d="m917 393 169 184"/><path stroke="#505050" d="m917 439 169-46"/><path stroke="#505050" d="M917 439h169"/><path stroke="#505050" d="m917 439 169 46"/><path stroke="#505050" d="m917 439 169 92"/><path stroke="#505050" d="m917 439 169 138"/><path stroke="#505050" d="m917 485 169-92"/><path stroke="#505050" d="m917 485 169-46"/><path stroke="#505050" d="M917 485h169"/><path stroke="#505050" d="m917 485 169 46"/><path stroke="#505050" d="m917 485 169 92"/><path stroke="#505050" d="m917 531 169-138"/><path stroke="#505050" d="m917 531 169-92"/><path stroke="#505050" d="m917 531 169-46"/><path stroke="#505050" d="M917 531h169"/><path stroke="#505050" d="m917 531 169 46"/><path stroke="#505050" d="m917 577 169-184"/><path stroke="#505050" d="m917 577 169-138"/><path stroke="#505050" d="m917 577 169-92"/><path stroke="#505050" d="m917 577 169-46"/><path stroke="#505050" d="M917 577h169"/><path stroke="#505050" d="m917 623 169-230"/><path stroke="#505050" d="m917 623 169-184"/><path stroke="#505050" d="m917 623 169-138"/><path stroke="#505050" d="m917 623 169-92"/><path stroke="#505050" d="m917 623 169-46"/><path stroke="#505050" d="m1086 347 169 92"/><path stroke="#505050" d="m1086 347 169 138"/><path stroke="#505050" d="m1086 393 169 46"/><path stroke="#505050" d="m1086 393 169 92"/><path stroke="#505050" d="M1086 439h169"/><path stroke="#505050" d="m1086 439 169 46"/><path stroke="#505050" d="m1086 485 169-46"/><path stroke="#505050" d="M1086 485h169"/><path stroke="#505050" d="m1086 531 169-92"/><path stroke="#505050" d="m1086 531 169-46"/><path stroke="#505050" d="m1086 577 169-138"/><path stroke="#505050" d="m1086 577 169-92"/><path stroke="#505050" d="M1255 393h169"/><path stroke="#505050" d="m1255 393 169 46"/><path stroke="#505050" d="m1255 393 169 92"/><path stroke="#505050" d="m1255 439 169-46"/><path stroke="#505050" d="M1255 439h169"/><path stroke="#505050" d="m1255 439 169 46"/><path stroke="#505050" d="m1255 485 169-92"/><path stroke="#505050" d="m1255 485 169-46"/><path stroke="#505050" d="M1255 485h169"/><path stroke="#505050" d="M1424 347h169"/><path stroke="#505050" d="m1424 347 169 46"/><path stroke="#505050" d="m1424 347 169 92"/><path stroke="#505050" d="m1424 347 169 138"/><path stroke="#505050" d="m1424 347 169 184"/><path stroke="#505050" d="m1424 393 169-46"/><path stroke="#505050" d="M1424 393h169"/><path stroke="#505050" d="m1424 393 169 46"/><path stroke="#505050" d="m1424 393 169 92"/><path stroke="#505050" d="m1424 393 169 138"/><path stroke="#505050" d="m1424 439 169-92"/><path stroke="#505050" d="m1424 439 169-46"/><path stroke="#505050" d="M1424 439h169"/><path stroke="#505050" d="m1424 439 169 46"/><path stroke="#505050" d="m1424 439 169 92"/><path stroke="#505050" d="m1424 485 169-138"/><path stroke="#505050" d="m1424 485 169-92"/><path stroke="#505050" d="m1424 485 169-46"/><path stroke="#505050" d="M1424 485h169"/><path stroke="#505050" d="m1424 485 169 46"/><path stroke="#505050" d="m1255 393 169 138"/><path stroke="#505050" d="m1255 393 169 184"/><path stroke="#505050" d="m1255 439 169 92"/><path stroke="#505050" d="m1255 439 169 138"/><path stroke="#505050" d="m1255 485 169 46"/><path stroke="#505050" d="m1255 485 169 92"/><path stroke="#505050" d="m1424 531 169-184"/><path stroke="#505050" d="m1424 531 169-138"/><path stroke="#505050" d="m1424 531 169-92"/><path stroke="#505050" d="m1424 531 169-46"/><path stroke="#505050" d="M1424 531h169"/><path stroke="#505050" d="m1424 577 169-230"/><path stroke="#505050" d="m1424 577 169-184"/><path stroke="#505050" d="m1424 577 169-138"/><path stroke="#505050" d="m1424 577 169-92"/><path stroke="#505050" d="m1424 577 169-46"/><path stroke="#505050" d="m1424 347 169 230"/><path stroke="#505050" d="m1424 347 169 276"/><path stroke="#505050" d="m1424 393 169 184"/><path stroke="#505050" d="m1424 393 169 230"/><path stroke="#505050" d="m1424 439 169 138"/><path stroke="#505050" d="m1424 439 169 184"/><path stroke="#505050" d="m1424 485 169 92"/><path stroke="#505050" d="m1424 485 169 138"/><path stroke="#505050" d="m1424 531 169 46"/><path stroke="#505050" d="m1424 531 169 92"/><path stroke="#505050" d="M1424 577h169"/><path stroke="#505050" d="m1424 577 169 46"/><path stroke="#505050" d="M1593 301h169"/><path stroke="#505050" d="m1593 301 169 46"/><path stroke="#505050" d="m1593 301 169 92"/><path stroke="#505050" d="m1593 301 169 138"/><path stroke="#505050" d="m1593 301 169 184"/><path stroke="#505050" d="m1593 301 169 230"/><path stroke="#505050" d="m1593 301 169 276"/><path stroke="#505050" d="m1593 301 169 322"/><path stroke="#505050" d="m1593 347 169-46"/><path stroke="#505050" d="M1593 347h169"/><path stroke="#505050" d="m1593 347 169 46"/><path stroke="#505050" d="m1593 347 169 92"/><path stroke="#505050" d="m1593 347 169 138"/><path stroke="#505050" d="m1593 347 169 184"/><path stroke="#505050" d="m1593 347 169 230"/><path stroke="#505050" d="m1593 347 169 276"/><path stroke="#505050" d="m1593 393 169-92"/><path stroke="#505050" d="m1593 393 169-46"/><path stroke="#505050" d="M1593 393h169"/><path stroke="#505050" d="m1593 393 169 46"/><path stroke="#505050" d="m1593 393 169 92"/><path stroke="#505050" d="m1593 393 169 138"/><path stroke="#505050" d="m1593 393 169 184"/><path stroke="#505050" d="m1593 393 169 230"/><path stroke="#505050" d="m1593 439 169-138"/><path stroke="#505050" d="m1593 439 169-92"/><path stroke="#505050" d="m1593 439 169-46"/><path stroke="#505050" d="M1593 439h169"/><path stroke="#505050" d="m1593 439 169 46"/><path stroke="#505050" d="m1593 439 169 92"/><path stroke="#505050" d="m1593 439 169 138"/><path stroke="#505050" d="m1593 439 169 184"/><path stroke="#505050" d="m1593 485 169-184"/><path stroke="#505050" d="m1593 485 169-138"/><path stroke="#505050" d="m1593 485 169-92"/><path stroke="#505050" d="m1593 485 169-46"/><path stroke="#505050" d="M1593 485h169"/><path stroke="#505050" d="m1593 485 169 46"/><path stroke="#505050" d="m1593 485 169 92"/><path stroke="#505050" d="m1593 485 169 138"/><path stroke="#505050" d="m1593 531 169-230"/><path stroke="#505050" d="m1593 531 169-184"/><path stroke="#505050" d="m1593 531 169-138"/><path stroke="#505050" d="m1593 531 169-92"/><path stroke="#505050" d="m1593 531 169-46"/><path stroke="#505050" d="M1593 531h169"/><path stroke="#505050" d="m1593 531 169 46"/><path stroke="#505050" d="m1593 531 169 92"/><path stroke="#505050" d="m1593 577 169-276"/><path stroke="#505050" d="m1593 577 169-230"/><path stroke="#505050" d="m1593 577 169-184"/><path stroke="#505050" d="m1593 577 169-138"/><path stroke="#505050" d="m1593 577 169-92"/><path stroke="#505050" d="m1593 577 169-46"/><path stroke="#505050" d="M1593 577h169"/><path stroke="#505050" d="m1593 577 169 46"/><path stroke="#505050" d="m1593 623 169-322"/><path stroke="#505050" d="m1593 623 169-276"/><path stroke="#505050" d="m1593 623 169-230"/><path stroke="#505050" d="m1593 623 169-184"/><path stroke="#505050" d="m1593 623 169-138"/><path stroke="#505050" d="m1593 623 169-92"/><path stroke="#505050" d="m1593 623 169-46"/><path stroke="#505050" d="M1593 623h169"/><path stroke="#505050" d="m1086 347 169 184"/><path stroke="#505050" d="m1086 393 169 138"/><path stroke="#505050" d="m1086 439 169 92"/><path stroke="#505050" d="m1086 485 169 46"/><path stroke="#505050" d="M1086 531h169"/><path stroke="#505050" d="m1086 577 169-46"/><path stroke="#505050" d="m1255 531 169-138"/><path stroke="#505050" d="m1255 531 169-92"/><path stroke="#505050" d="m1255 531 169-46"/><path stroke="#505050" d="M1255 531h169"/><path stroke="#505050" d="m1255 531 169 46"/><path stroke="#505050" d="m579 278 169 23"/><path stroke="#505050" d="m579 324 169-23"/><path stroke="#505050" d="m579 370 169-69"/><path stroke="#505050" d="m579 416 169-115"/><path stroke="#505050" d="m579 462 169-161"/><path stroke="#505050" d="m579 508 169-207"/><path stroke="#505050" d="m579 554 169-253"/><path stroke="#505050" d="m579 600 169-299"/><path stroke="#505050" d="m579 646 169-345"/><path stroke="#505050" d="M748 301h169"/><path stroke="#505050" d="m748 347 169-46"/><path stroke="#505050" d="m748 393 169-92"/><path stroke="#505050" d="m748 439 169-138"/><path stroke="#505050" d="m748 485 169-184"/><path stroke="#505050" d="m748 531 169-230"/><path stroke="#505050" d="m748 577 169-276"/><path stroke="#505050" d="m748 623 169-322"/><path stroke="#505050" d="m917 301 169 46"/><path stroke="#505050" d="M917 347h169"/><path stroke="#505050" d="m917 393 169-46"/><path stroke="#505050" d="m917 439 169-92"/><path stroke="#505050" d="m917 485 169-138"/><path stroke="#505050" d="m917 531 169-184"/><path stroke="#505050" d="m917 577 169-230"/><path stroke="#505050" d="m917 623 169-276"/><path stroke="#505050" d="m1086 347 169 46"/><path stroke="#505050" d="M1086 393h169"/><path stroke="#505050" d="m1086 439 169-46"/><path stroke="#505050" d="m1086 485 169-92"/><path stroke="#505050" d="m1086 531 169-138"/><path stroke="#505050" d="m1086 577 169-184"/><path stroke="#505050" d="m1255 393 169-46"/><path stroke="#505050" d="m1255 439 169-92"/><path stroke="#505050" d="m1255 485 169-138"/><path stroke="#505050" d="m1255 531 169-184"/><path stroke="#505050" d="m1424 347 169-46"/><path stroke="#505050" d="m1424 393 169-92"/><path stroke="#505050" d="m1424 439 169-138"/><path stroke="#505050" d="m1424 485 169-184"/><path stroke="#505050" d="m1424 531 169-230"/><path stroke="#505050" d="m1424 577 169-276"/><circle cx="578.7" cy="277.5" r="13" fill="#fff" stroke="#333"/><circle cx="578.7" cy="323.5" r="13" fill="#fff" stroke="#333"/><circle cx="578.7" cy="369.5" r="13" fill="#fff" stroke="#333"/><circle cx="578.7" cy="415.5" r="13" fill="#fff" stroke="#333"/><circle cx="578.7" cy="461.5" r="13" fill="#fff" stroke="#333"/><circle cx="578.7" cy="507.5" r="13" fill="#fff" stroke="#333"/><circle cx="578.7" cy="553.5" r="13" fill="#fff" stroke="#333"/><circle cx="578.7" cy="599.5" r="13" fill="#fff" stroke="#333"/><circle cx="578.7" cy="645.5" r="13" fill="#fff" stroke="#333"/><circle cx="747.7" cy="300.5" r="13" fill="#fff" stroke="#333"/><circle cx="747.7" cy="346.5" r="13" fill="#fff" stroke="#333"/><circle cx="747.7" cy="392.5" r="13" fill="#fff" stroke="#333"/><circle cx="747.7" cy="438.5" r="13" fill="#fff" stroke="#333"/><circle cx="747.7" cy="484.5" r="13" fill="#fff" stroke="#333"/><circle cx="747.7" cy="530.5" r="13" fill="#fff" stroke="#333"/><circle cx="747.7" cy="576.5" r="13" fill="#fff" stroke="#333"/><circle cx="747.7" cy="622.5" r="13" fill="#fff" stroke="#333"/><circle cx="916.7" cy="300.5" r="13" fill="#fff" stroke="#333"/><circle cx="916.7" cy="346.5" r="13" fill="#fff" stroke="#333"/><circle cx="916.7" cy="392.5" r="13" fill="#fff" stroke="#333"/><circle cx="916.7" cy="438.5" r="13" fill="#fff" stroke="#333"/><circle cx="916.7" cy="484.5" r="13" fill="#fff" stroke="#333"/><circle cx="916.7" cy="530.5" r="13" fill="#fff" stroke="#333"/><circle cx="916.7" cy="576.5" r="13" fill="#fff" stroke="#333"/><circle cx="916.7" cy="622.5" r="13" fill="#fff" stroke="#333"/><circle cx="1085.7" cy="346.5" r="13" fill="#fff" stroke="#333"/><circle cx="1085.7" cy="392.5" r="13" fill="#fff" stroke="#333"/><circle cx="1085.7" cy="438.5" r="13" fill="#fff" stroke="#333"/><circle cx="1085.7" cy="484.5" r="13" fill="#fff" stroke="#333"/><circle cx="1085.7" cy="530.5" r="13" fill="#fff" stroke="#333"/><circle cx="1085.7" cy="576.5" r="13" fill="#fff" stroke="#333"/><circle cx="1254.7" cy="392.5" r="13" fill="#fff" stroke="#333"/><circle cx="1254.7" cy="438.5" r="13" fill="#fff" stroke="#333"/><circle cx="1254.7" cy="484.5" r="13" fill="#fff" stroke="#333"/><circle cx="1254.7" cy="530.5" r="13" fill="#fff" stroke="#333"/><circle cx="1423.7" cy="346.5" r="13" fill="#fff" stroke="#333"/><circle cx="1423.7" cy="392.5" r="13" fill="#fff" stroke="#333"/><circle cx="1423.7" cy="438.5" r="13" fill="#fff" stroke="#333"/><circle cx="1423.7" cy="484.5" r="13" fill="#fff" stroke="#333"/><circle cx="1423.7" cy="530.5" r="13" fill="#fff" stroke="#333"/><circle cx="1423.7" cy="576.5" r="13" fill="#fff" stroke="#333"/><circle cx="1592.7" cy="300.5" r="13" fill="#fff" stroke="#333"/><circle cx="1592.7" cy="346.5" r="13" fill="#fff" stroke="#333"/><circle cx="1592.7" cy="392.5" r="13" fill="#fff" stroke="#333"/><circle cx="1592.7" cy="438.5" r="13" fill="#fff" stroke="#333"/><circle cx="1592.7" cy="484.5" r="13" fill="#fff" stroke="#333"/><circle cx="1592.7" cy="530.5" r="13" fill="#fff" stroke="#333"/><circle cx="1592.7" cy="576.5" r="13" fill="#fff" stroke="#333"/><circle cx="1592.7" cy="622.5" r="13" fill="#fff" stroke="#333"/><circle cx="1761.7" cy="300.5" r="13" fill="#fff" stroke="#333"/><circle cx="1761.7" cy="346.5" r="13" fill="#fff" stroke="#333"/><circle cx="1761.7" cy="392.5" r="13" fill="#fff" stroke="#333"/><circle cx="1761.7" cy="438.5" r="13" fill="#fff" stroke="#333"/><circle cx="1761.7" cy="484.5" r="13" fill="#fff" stroke="#333"/><circle cx="1761.7" cy="530.5" r="13" fill="#fff" stroke="#333"/><circle cx="1761.7" cy="576.5" r="13" fill="#fff" stroke="#333"/><circle cx="1761.7" cy="622.5" r="13" fill="#fff" stroke="#333"/>
  </g>
</svg>